<svg width="1440" height="400" viewBox="0 0 1440 400" fill="none" xmlns="http://www.w3.org/2000/svg">
<g clip-path="url(#clip0_481_378)">
<rect width="1440" height="400" fill="white"/>
<path d="M1455.61 -15.3611H-1.6001V411.168H1455.61V-15.3611Z" fill="#232150"/>
<path d="M1455.61 -15.3611H-1.6001V411.168H1455.61V-15.3611Z" fill="url(#paint0_radial_481_378)" fill-opacity="0.15"/>
<path d="M1455.61 -15.3611H-1.6001V411.168H1455.61V-15.3611Z" fill="url(#paint1_radial_481_378)" fill-opacity="0.2"/>
<path fill-rule="evenodd" clip-rule="evenodd" d="M808.243 134.187H854.918C856.713 134.187 858.135 132.691 858.135 130.896C858.135 129.101 856.713 127.68 854.918 127.68H808.243V134.187ZM803.98 159.47H833.75C835.545 159.47 837.041 158.049 836.966 156.179C836.966 154.384 835.545 152.963 833.75 152.963H803.98V159.47ZM854.918 159.47H847.887C846.092 159.47 844.671 158.049 844.671 156.253C844.671 154.458 846.092 153.037 847.887 153.037H854.918C856.714 153.037 858.135 154.458 858.135 156.253C858.135 158.049 856.714 159.47 854.918 159.47ZM784.906 184.751H810.338C812.133 184.751 813.629 183.33 813.554 181.46C813.554 179.665 812.133 178.244 810.338 178.244H787.898L784.906 184.751ZM854.918 184.751H824.624C822.829 184.751 821.408 183.33 821.408 181.535C821.408 179.74 822.829 178.318 824.624 178.318H854.918C856.714 178.318 858.135 179.74 858.135 181.535C858.135 183.33 856.714 184.751 854.918 184.751ZM758.651 235.392H813.031C814.826 235.392 816.322 233.971 816.247 232.101C816.247 230.305 814.826 228.884 813.031 228.884H758.651V235.392ZM854.918 235.391H827.317C825.522 235.391 824.101 233.97 824.101 232.175C824.101 230.38 825.522 228.959 827.317 228.959H854.918C856.714 228.959 858.135 230.38 858.135 232.175C858.135 233.97 856.714 235.391 854.918 235.391ZM743.317 286.03H794.705C796.5 286.03 797.921 284.534 797.921 282.739C797.921 280.944 796.5 279.523 794.705 279.523H743.317V286.03ZM792.012 311.313H740.625V304.806H792.012C793.807 304.806 795.228 306.227 795.228 308.022C795.228 309.892 793.807 311.313 792.012 311.313ZM808.917 286.03H827.542C829.337 286.03 830.833 284.534 830.758 282.814C830.758 281.019 829.337 279.597 827.542 279.597H808.917C807.121 279.597 805.7 281.019 805.7 282.814C805.7 284.609 807.121 286.03 808.917 286.03ZM767.852 260.673H749.974V254.165H767.852C769.647 254.165 771.068 255.587 771.068 257.382C771.068 259.252 769.647 260.673 767.852 260.673ZM805.102 210.109H835.321C837.116 210.109 838.537 208.613 838.537 206.892C838.537 205.097 837.116 203.676 835.321 203.676H805.102C803.306 203.676 801.885 205.097 801.885 206.892C801.885 208.687 803.306 210.109 805.102 210.109ZM790.815 210.109H771.816V203.601H790.815C792.61 203.601 794.031 205.022 794.031 206.818C794.031 208.613 792.61 210.109 790.815 210.109ZM849.533 210.109H854.918C856.713 210.109 858.135 208.613 858.135 206.892C858.135 205.097 856.713 203.676 854.918 203.676H849.533C847.737 203.676 846.316 205.097 846.316 206.892C846.316 208.687 847.737 210.109 849.533 210.109ZM835.321 260.673H782.138C780.343 260.673 778.922 259.252 778.922 257.456C778.922 255.661 780.343 254.24 782.138 254.24H835.321C837.116 254.24 838.537 255.661 838.537 257.456C838.537 259.252 837.116 260.673 835.321 260.673ZM806.373 311.313H815.499C817.294 311.313 818.715 309.892 818.715 308.096C818.715 306.301 817.294 304.88 815.499 304.88H806.373C804.578 304.88 803.157 306.301 803.157 308.096C803.157 309.892 804.578 311.313 806.373 311.313Z" fill="url(#paint2_linear_481_378)"/>
<path d="M596.081 154.176V161.799L628.891 142.218V311.125H635.543V138.257L642.344 134.221H664.541V311.125H671.193V127.719H640.401L596.081 154.176Z" fill="white"/>
<path d="M685.991 127.719V134.221H772.238C769.473 146.777 767.231 153.578 757.44 167.031C731.058 203.204 715.96 241.17 708.561 290.198C707.814 295.206 706.618 305.968 706.02 311.2H712.747C713.345 305.744 714.466 295.804 715.213 291.17C722.463 243.188 737.186 206.044 762.97 170.767C773.807 155.895 776.199 148.271 779.189 134.221H806.617C805.945 146.104 801.759 157.389 794.36 166.956C782.477 182.427 773.359 196.627 766.483 210.378L763.12 217.105C750.863 241.544 743.09 267.628 739.877 294.683L737.933 311.274H744.66L746.528 295.43C749.592 269.122 757.216 243.786 769.099 219.945L772.462 213.219C779.189 199.84 788.082 186.014 799.742 170.917C808.635 159.333 813.418 145.581 813.418 131.082V127.868H685.991V127.719Z" fill="white"/>
<path d="M465.367 169.613H322.367C301.967 169.613 285.367 151.713 285.367 129.413C285.367 107.213 301.967 89.2129 322.367 89.2129H465.367C485.767 89.2129 502.367 107.113 502.367 129.413C502.367 151.613 485.767 169.613 465.367 169.613Z" stroke="url(#paint3_linear_481_378)" stroke-width="1.5017"/>
<path d="M336.467 116.113H193.467C173.067 116.113 156.467 98.2128 156.467 75.9128C156.467 53.7128 173.067 35.7129 193.467 35.7129H336.467C356.867 35.7129 373.467 53.6128 373.467 75.9128C373.467 98.1128 356.867 116.113 336.467 116.113Z" stroke="url(#paint4_linear_481_378)" stroke-width="1.5017"/>
<path d="M450.767 129.313L420.267 159.913V98.7129L450.767 129.313Z" fill="#F46D26"/>
<path d="M408.367 129.313L377.867 159.913V98.7129L408.367 129.313Z" fill="#F49B26"/>
<path d="M365.967 129.313L335.467 159.913V98.7129L365.967 129.313Z" fill="#F7D1A3"/>
<path d="M1245.03 374.057H1102.03C1081.23 374.057 1064.23 355.757 1064.23 333.157C1064.23 310.557 1081.13 292.257 1102.03 292.257H1245.03C1265.93 292.257 1282.83 310.557 1282.83 333.157C1282.83 355.757 1265.93 374.057 1245.03 374.057Z" fill="url(#paint5_linear_481_378)"/>
<path d="M1148.89 309.382H1005.89C985.487 309.382 968.887 291.482 968.887 269.182C968.887 246.982 985.487 228.982 1005.89 228.982H1148.89C1169.29 228.982 1185.89 246.882 1185.89 269.182C1185.89 291.482 1169.29 309.382 1148.89 309.382Z" stroke="url(#paint6_linear_481_378)" stroke-width="1.5017"/>
<path d="M1349.74 38.4H1102.04C1082.54 38.4 1066.64 21.3 1066.64 0C1066.64 -21.2 1082.54 -38.3999 1102.04 -38.3999H1349.74C1369.24 -38.3999 1385.14 -21.3 1385.14 0C1385.24 21.3 1369.34 38.4 1349.74 38.4Z" stroke="#FCA326" stroke-width="1.5017"/>
<path d="M208.376 363.822H65.3757C44.9757 363.822 28.3757 345.922 28.3757 323.622C28.3757 301.422 44.9757 283.422 65.3757 283.422H208.376C228.776 283.422 245.376 301.322 245.376 323.622C245.376 345.922 228.776 363.822 208.376 363.822Z" stroke="#E24329" stroke-width="1.5017"/>
<path d="M99.3226 85.1957L99.2226 85.0957L93.7226 70.7957C93.6226 70.4957 93.4226 70.2957 93.1226 70.0957C92.9226 69.9957 92.7226 69.8958 92.5226 69.8958C92.3226 69.8958 92.0226 69.8957 91.8226 69.9957C91.6226 70.0957 91.4226 70.1958 91.2226 70.3958C91.0226 70.5958 90.9226 70.7957 90.9226 70.9957L87.2226 82.3958H72.1226L68.4226 70.9957C68.3226 70.7957 68.2226 70.5958 68.1226 70.3958C68.0226 70.1958 67.8226 70.0957 67.5226 69.9957C67.3226 69.8957 67.1226 69.8958 66.8226 69.8958C66.6226 69.8958 66.4226 69.9957 66.2226 70.0957C65.9226 70.2957 65.7226 70.4957 65.6226 70.7957L60.1226 85.0957L60.0226 85.1957C59.2226 87.2957 59.1226 89.4957 59.7226 91.6957C60.3226 93.7957 61.6226 95.6957 63.4226 96.9957L71.8226 103.296L76.0226 106.396L78.5226 108.296C78.8226 108.496 79.2226 108.596 79.5226 108.596C79.8226 108.596 80.2226 108.496 80.5226 108.296L83.0226 106.396L87.2226 103.296L95.7226 96.9957C97.5226 95.6957 98.8226 93.7957 99.4226 91.6957C100.223 89.5957 100.123 87.2957 99.3226 85.1957Z" fill="url(#paint7_linear_481_378)"/>
<path d="M79.7226 129.595C101.98 129.595 120.023 111.552 120.023 89.2953C120.023 67.0382 101.98 48.9954 79.7226 48.9954C57.4655 48.9954 39.4226 67.0382 39.4226 89.2953C39.4226 111.552 57.4655 129.595 79.7226 129.595Z" stroke="url(#paint8_linear_481_378)" stroke-width="1.5017"/>
<path opacity="0.15" d="M79.7226 132.895C103.802 132.895 123.323 113.374 123.323 89.2946C123.323 65.2149 103.802 45.6946 79.7226 45.6946C55.643 45.6946 36.1226 65.2149 36.1226 89.2946C36.1226 113.374 55.643 132.895 79.7226 132.895Z" stroke="url(#paint9_linear_481_378)" stroke-width="5"/>
<path d="M924.113 39.5999C902.213 39.5999 884.513 21.8999 884.513 -0.00012207C884.513 -21.9001 902.213 -39.6001 924.113 -39.6001C946.013 -39.6001 963.713 -21.9001 963.713 -0.00012207C963.813 21.7999 946.013 39.5999 924.113 39.5999Z" fill="url(#paint10_linear_481_378)"/>
<path d="M1141.97 113.016L1140.07 123.416C1139.47 126.816 1136.87 129.616 1133.47 130.016L1123.07 131.916C1121.17 132.316 1121.17 134.916 1123.07 135.316L1133.47 137.216C1136.87 137.816 1139.47 140.416 1140.07 143.816L1141.97 154.216C1142.37 156.116 1144.97 156.116 1145.37 154.216L1147.27 143.816C1147.87 140.416 1150.47 137.616 1153.87 137.216L1164.27 135.316C1166.17 134.916 1166.17 132.316 1164.27 131.916L1153.87 130.016C1150.47 129.416 1147.67 126.816 1147.27 123.416L1145.37 113.016C1144.97 111.316 1142.47 111.316 1141.97 113.016Z" fill="url(#paint11_linear_481_378)"/>
<path d="M594.043 28.6407L592.643 36.5407C592.143 39.1407 590.243 41.2407 587.643 41.5407L579.743 42.9408C578.343 43.2408 578.343 45.2407 579.743 45.5407L587.643 46.9408C590.243 47.4408 592.143 49.3408 592.643 51.9408L594.043 59.8407C594.343 61.2407 596.343 61.2407 596.643 59.8407L598.043 51.9408C598.543 49.3408 600.443 47.2408 603.043 46.9408L610.943 45.5407C612.343 45.2407 612.343 43.2408 610.943 42.9408L603.043 41.5407C600.443 41.0407 598.343 39.1407 598.043 36.5407L596.643 28.6407C596.243 27.4407 594.343 27.4407 594.043 28.6407Z" fill="url(#paint12_linear_481_378)"/>
<path d="M159.023 198.728L160.223 205.528C160.623 207.728 162.323 209.528 164.523 209.828L171.323 211.028C172.523 211.328 172.523 212.928 171.323 213.228L164.523 214.428C162.323 214.828 160.623 216.528 160.223 218.728L159.023 225.528C158.723 226.728 157.123 226.728 156.823 225.528L155.623 218.728C155.223 216.528 153.523 214.728 151.323 214.428L144.523 213.228C143.323 212.928 143.323 211.328 144.523 211.028L151.323 209.828C153.523 209.428 155.323 207.728 155.623 205.528L156.823 198.728C157.023 197.628 158.723 197.628 159.023 198.728Z" fill="url(#paint13_linear_481_378)"/>
<path d="M894.084 317.851L895.484 325.451C895.984 327.951 897.784 329.951 900.284 330.251L907.884 331.651C909.284 331.951 909.284 333.851 907.884 334.151L900.284 335.551C897.784 336.051 895.884 337.851 895.484 340.351L894.084 347.951C893.784 349.351 891.884 349.351 891.584 347.951L890.184 340.351C889.684 337.851 887.884 335.851 885.384 335.551L877.784 334.151C876.384 333.851 876.384 331.951 877.784 331.651L885.384 330.251C887.884 329.751 889.884 327.951 890.184 325.451L891.584 317.851C891.984 316.551 893.784 316.551 894.084 317.851Z" fill="url(#paint14_linear_481_378)"/>
<path d="M1333.58 204.629C1355.84 204.629 1373.88 186.586 1373.88 164.329C1373.88 142.072 1355.84 124.029 1333.58 124.029C1311.33 124.029 1293.28 142.072 1293.28 164.329C1293.28 186.586 1311.33 204.629 1333.58 204.629Z" fill="url(#paint15_linear_481_378)"/>
<path d="M1333.58 204.629C1355.84 204.629 1373.88 186.586 1373.88 164.329C1373.88 142.072 1355.84 124.029 1333.58 124.029C1311.33 124.029 1293.28 142.072 1293.28 164.329C1293.28 186.586 1311.33 204.629 1333.58 204.629Z" fill="url(#paint16_linear_481_378)"/>
<path opacity="0.35" d="M1333.58 208.129C1357.77 208.129 1377.38 188.519 1377.38 164.329C1377.38 140.139 1357.77 120.529 1333.58 120.529C1309.39 120.529 1289.78 140.139 1289.78 164.329C1289.78 188.519 1309.39 208.129 1333.58 208.129Z" stroke="url(#paint17_linear_481_378)" stroke-width="7" stroke-miterlimit="10"/>
<path opacity="0.35" d="M1333.58 208.129C1357.77 208.129 1377.38 188.519 1377.38 164.329C1377.38 140.139 1357.77 120.529 1333.58 120.529C1309.39 120.529 1289.78 140.139 1289.78 164.329C1289.78 188.519 1309.39 208.129 1333.58 208.129Z" stroke="url(#paint18_linear_481_378)" stroke-width="7" stroke-miterlimit="10"/>
<path d="M1333.81 148.406H1355.35V175.528C1355.35 178.629 1352.89 181.14 1349.85 181.14H1312.27V154.017" stroke="white" stroke-width="1.5" stroke-miterlimit="10"/>
<path d="M1340.23 171.32L1346.64 164.773L1340.23 158.226" stroke="white" stroke-width="1.5" stroke-miterlimit="10"/>
<path d="M1327.39 158.226L1320.98 164.773L1327.39 171.32" stroke="white" stroke-width="1.5" stroke-miterlimit="10"/>
<path d="M1337.02 156.823L1330.6 172.255" stroke="white" stroke-width="1.5" stroke-miterlimit="10"/>
<path d="M1317.77 142.299L1317.32 144.739C1317.18 145.537 1316.57 146.194 1315.77 146.288L1313.33 146.733C1312.89 146.827 1312.89 147.437 1313.33 147.531L1315.77 147.977C1316.57 148.118 1317.18 148.728 1317.32 149.525L1317.77 151.965C1317.86 152.411 1318.47 152.411 1318.57 151.965L1319.01 149.525C1319.15 148.728 1319.76 148.071 1320.56 147.977L1323 147.531C1323.45 147.437 1323.45 146.827 1323 146.733L1320.56 146.288C1319.76 146.147 1319.11 145.537 1319.01 144.739L1318.57 142.299C1318.47 141.9 1317.89 141.9 1317.77 142.299Z" fill="white"/>
<path d="M1325.31 149.145L1325.1 150.33C1325.03 150.717 1324.73 151.036 1324.35 151.081L1323.16 151.298C1322.95 151.343 1322.95 151.64 1323.16 151.685L1324.35 151.901C1324.73 151.97 1325.03 152.266 1325.1 152.653L1325.31 153.838C1325.36 154.054 1325.66 154.054 1325.7 153.838L1325.92 152.653C1325.99 152.266 1326.28 151.947 1326.67 151.901L1327.85 151.685C1328.07 151.64 1328.07 151.343 1327.85 151.298L1326.67 151.081C1326.28 151.013 1325.96 150.717 1325.92 150.33L1325.7 149.145C1325.66 148.952 1325.37 148.952 1325.31 149.145Z" fill="white"/>
<path opacity="0.35" d="M438.819 411.148C405.519 411.148 378.419 384.148 378.419 350.748C378.419 317.348 405.419 290.348 438.819 290.348C472.119 290.348 499.219 317.348 499.219 350.748C499.219 384.148 472.119 411.148 438.819 411.148Z" stroke="url(#paint19_linear_481_378)" stroke-width="7.5084" stroke-miterlimit="10"/>
<path opacity="0.15" d="M438.819 422.449C399.219 422.449 367.119 390.349 367.119 350.749C367.119 311.149 399.219 279.049 438.819 279.049C478.419 279.049 510.519 311.149 510.519 350.749C510.519 390.349 478.419 422.449 438.819 422.449Z" stroke="url(#paint20_linear_481_378)" stroke-width="15.0168" stroke-miterlimit="10"/>
<path d="M438.819 390.65C416.919 390.65 399.219 372.95 399.219 351.05C399.219 329.15 416.919 311.45 438.819 311.45C460.719 311.45 478.419 329.15 478.419 351.05C478.419 372.85 460.719 390.65 438.819 390.65Z" fill="url(#paint21_linear_481_378)"/>
<path d="M454.583 347.133H423.822V367.862H454.583V347.133Z" stroke="white" stroke-width="1.5" stroke-miterlimit="10"/>
<path d="M429.344 343.678V347.133" stroke="white" stroke-width="1.5" stroke-miterlimit="10"/>
<path d="M449.062 347.133V341.375C449.062 336.074 444.649 331.779 439.203 331.779C437.503 331.779 435.902 332.197 434.502 332.938" stroke="white" stroke-width="1.5" stroke-miterlimit="10"/>
<path d="M435.244 357.91L437.914 360.613L443.197 354.665" stroke="white" stroke-width="1.5" stroke-miterlimit="10"/>
<path d="M427.769 331.299L427.323 333.739C427.182 334.537 426.572 335.194 425.774 335.288L423.334 335.733C422.889 335.827 422.889 336.437 423.334 336.531L425.774 336.977C426.572 337.118 427.182 337.728 427.323 338.525L427.769 340.965C427.862 341.411 428.472 341.411 428.566 340.965L429.012 338.525C429.153 337.728 429.763 337.071 430.561 336.977L433.001 336.531C433.446 336.437 433.446 335.827 433.001 335.733L430.561 335.288C429.763 335.147 429.106 334.537 429.012 333.739L428.566 331.299C428.472 330.9 427.886 330.9 427.769 331.299Z" fill="white"/>
<path d="M435.65 338.145L435.433 339.33C435.365 339.717 435.069 340.036 434.682 340.081L433.497 340.298C433.281 340.343 433.281 340.64 433.497 340.685L434.682 340.901C435.069 340.97 435.365 341.266 435.433 341.653L435.65 342.838C435.695 343.054 435.992 343.054 436.037 342.838L436.254 341.653C436.322 341.266 436.618 340.947 437.005 340.901L438.19 340.685C438.406 340.64 438.406 340.343 438.19 340.298L437.005 340.081C436.618 340.013 436.299 339.717 436.254 339.33L436.037 338.145C435.992 337.952 435.707 337.952 435.65 338.145Z" fill="white"/>
<path d="M692.532 113.776C691.249 113.776 690.127 113.541 689.166 113.069C688.223 112.579 687.488 111.881 686.96 110.976C686.45 110.052 686.196 108.977 686.196 107.752V98.5873C686.196 97.3428 686.45 96.2679 686.96 95.3628C687.488 94.4577 688.223 93.7694 689.166 93.298C690.127 92.8078 691.249 92.5626 692.532 92.5626C693.814 92.5626 694.926 92.8078 695.869 93.298C696.812 93.7883 697.538 94.486 698.047 95.3911C698.575 96.2774 698.839 97.3428 698.839 98.5873H695.784C695.784 97.5125 695.502 96.6922 694.936 96.1265C694.37 95.5608 693.569 95.278 692.532 95.278C691.495 95.278 690.684 95.5608 690.099 96.1265C689.534 96.6922 689.251 97.503 689.251 98.559V107.752C689.251 108.808 689.534 109.628 690.099 110.212C690.684 110.797 691.495 111.089 692.532 111.089C693.569 111.089 694.37 110.797 694.936 110.212C695.502 109.628 695.784 108.808 695.784 107.752V105.432H691.938V102.745H698.839V107.752C698.839 108.977 698.575 110.043 698.047 110.948C697.538 111.853 696.812 112.551 695.869 113.041C694.926 113.531 693.814 113.776 692.532 113.776ZM702.76 113.493V110.721H708.219V100.709H703.467V97.9367H711.189V110.721H716.195V113.493H702.76ZM709.407 95.2497C708.747 95.2497 708.219 95.08 707.823 94.7406C707.427 94.3823 707.229 93.9109 707.229 93.3263C707.229 92.7229 707.427 92.2515 707.823 91.9121C708.219 91.5538 708.747 91.3747 709.407 91.3747C710.067 91.3747 710.595 91.5538 710.991 91.9121C711.387 92.2515 711.585 92.7229 711.585 93.3263C711.585 93.9109 711.387 94.3823 710.991 94.7406C710.595 95.08 710.067 95.2497 709.407 95.2497ZM727.187 113.493C725.773 113.493 724.669 113.107 723.877 112.334C723.086 111.561 722.69 110.486 722.69 109.109V100.709H718.39V97.9367H722.69V93.5526H725.744V97.9367H731.826V100.709H725.744V109.109C725.744 110.184 726.263 110.721 727.3 110.721H731.543V113.493H727.187ZM736.623 113.493V92.8455H739.678V110.693H748.701V113.493H736.623ZM757.005 113.776C755.384 113.776 754.101 113.361 753.158 112.532C752.235 111.683 751.773 110.533 751.773 109.081C751.773 107.61 752.263 106.46 753.243 105.63C754.243 104.782 755.61 104.357 757.345 104.357H761.672V102.915C761.672 102.066 761.408 101.406 760.88 100.935C760.352 100.464 759.607 100.228 758.646 100.228C757.797 100.228 757.09 100.416 756.524 100.794C755.959 101.152 755.629 101.633 755.534 102.236H752.536C752.706 100.841 753.347 99.7281 754.46 98.8984C755.591 98.0687 757.015 97.6539 758.731 97.6539C760.579 97.6539 762.04 98.1253 763.115 99.0681C764.19 99.9921 764.727 101.256 764.727 102.858V113.493H761.757V110.637H761.248L761.757 110.071C761.757 111.202 761.323 112.107 760.456 112.786C759.589 113.446 758.438 113.776 757.005 113.776ZM757.91 111.429C759.004 111.429 759.9 111.155 760.597 110.608C761.314 110.043 761.672 109.326 761.672 108.459V106.422H757.401C756.609 106.422 755.978 106.639 755.506 107.073C755.054 107.506 754.827 108.1 754.827 108.855C754.827 109.647 755.101 110.278 755.648 110.75C756.194 111.202 756.949 111.429 757.91 111.429ZM776.2 113.776C774.917 113.776 773.899 113.427 773.145 112.73C772.391 112.013 772.013 111.042 772.013 109.816L772.664 110.524H772.013V113.493H768.987V92.8455H772.042V97.2862L771.957 100.907H772.664L772.013 101.614C772.013 100.388 772.391 99.4264 773.145 98.7287C773.918 98.0122 774.936 97.6539 776.2 97.6539C777.765 97.6539 779.019 98.1819 779.961 99.2378C780.904 100.294 781.376 101.727 781.376 103.537V107.921C781.376 109.713 780.904 111.136 779.961 112.192C779.019 113.248 777.765 113.776 776.2 113.776ZM775.153 111.117C776.152 111.117 776.935 110.835 777.501 110.269C778.066 109.684 778.349 108.845 778.349 107.752V103.679C778.349 102.585 778.066 101.755 777.501 101.19C776.935 100.605 776.152 100.313 775.153 100.313C774.191 100.313 773.428 100.614 772.862 101.218C772.315 101.802 772.042 102.623 772.042 103.679V107.752C772.042 108.808 772.315 109.637 772.862 110.241C773.428 110.825 774.191 111.117 775.153 111.117Z" fill="white"/>
</g>
<defs>
<radialGradient id="paint0_radial_481_378" cx="0" cy="0" r="1" gradientUnits="userSpaceOnUse" gradientTransform="translate(308.801 47.1415) rotate(-148.279) scale(470.311 275.623)">
<stop offset="0.050548" stop-color="#CEB3EF"/>
<stop offset="1" stop-color="#CEB3EF" stop-opacity="0"/>
</radialGradient>
<radialGradient id="paint1_radial_481_378" cx="0" cy="0" r="1" gradientUnits="userSpaceOnUse" gradientTransform="translate(460.123 385.87) rotate(177.768) scale(655.056 255.645)">
<stop stop-color="#E24329"/>
<stop offset="1" stop-color="#E24329" stop-opacity="0.17"/>
</radialGradient>
<linearGradient id="paint2_linear_481_378" x1="858.135" y1="229.045" x2="763.608" y2="219.496" gradientUnits="userSpaceOnUse">
<stop offset="0.295138" stop-color="#A989F5" stop-opacity="0.3"/>
<stop offset="0.934251" stop-color="#A989F5"/>
</linearGradient>
<linearGradient id="paint3_linear_481_378" x1="284.648" y1="129.406" x2="503.143" y2="129.406" gradientUnits="userSpaceOnUse">
<stop stop-color="#E24329"/>
<stop offset="1" stop-color="#FCA326"/>
</linearGradient>
<linearGradient id="paint4_linear_481_378" x1="155.717" y1="75.8926" x2="374.21" y2="75.8926" gradientUnits="userSpaceOnUse">
<stop offset="0.0953621" stop-color="#232150" stop-opacity="0"/>
<stop offset="1" stop-color="#FDF1DD"/>
</linearGradient>
<linearGradient id="paint5_linear_481_378" x1="1064.29" y1="333.14" x2="1282.79" y2="333.14" gradientUnits="userSpaceOnUse">
<stop stop-color="#5943B6"/>
<stop offset="1" stop-color="#A989F5"/>
</linearGradient>
<linearGradient id="paint6_linear_481_378" x1="1186.63" y1="269.24" x2="968.136" y2="269.24" gradientUnits="userSpaceOnUse">
<stop stop-color="#7759C2"/>
<stop offset="0.9561" stop-color="#232150"/>
</linearGradient>
<linearGradient id="paint7_linear_481_378" x1="102.08" y1="89.2731" x2="57.7968" y2="89.2731" gradientUnits="userSpaceOnUse">
<stop stop-color="#FCA326"/>
<stop offset="1" stop-color="#A989F5"/>
</linearGradient>
<linearGradient id="paint8_linear_481_378" x1="294.761" y1="89.2728" x2="-2.68508" y2="89.2728" gradientUnits="userSpaceOnUse">
<stop stop-color="#FCA326"/>
<stop offset="1" stop-color="#7759C2"/>
</linearGradient>
<linearGradient id="paint9_linear_481_378" x1="89.786" y1="-151.982" x2="75.827" y2="181.68" gradientUnits="userSpaceOnUse">
<stop stop-color="#FCA326"/>
<stop offset="1" stop-color="#7759C2"/>
</linearGradient>
<linearGradient id="paint10_linear_481_378" x1="963.768" y1="-0.0605233" x2="884.54" y2="-0.0605233" gradientUnits="userSpaceOnUse">
<stop stop-color="#FCA326"/>
<stop offset="1" stop-color="#A989F5"/>
</linearGradient>
<linearGradient id="paint11_linear_481_378" x1="1165.73" y1="133.684" x2="1121.59" y2="133.684" gradientUnits="userSpaceOnUse">
<stop offset="0.2" stop-color="#6FD2C1"/>
<stop offset="0.7" stop-color="#10A9A9"/>
</linearGradient>
<linearGradient id="paint12_linear_481_378" x1="611.965" y1="44.3627" x2="578.568" y2="44.3627" gradientUnits="userSpaceOnUse">
<stop offset="0.2" stop-color="#F49B26"/>
<stop offset="0.7" stop-color="#F46D26"/>
</linearGradient>
<linearGradient id="paint13_linear_481_378" x1="143.533" y1="212.212" x2="172.305" y2="212.212" gradientUnits="userSpaceOnUse">
<stop offset="0.2" stop-color="#5943B3"/>
<stop offset="0.7" stop-color="#A181ED"/>
</linearGradient>
<linearGradient id="paint14_linear_481_378" x1="876.782" y1="332.975" x2="909.062" y2="332.975" gradientUnits="userSpaceOnUse">
<stop offset="0.2" stop-color="#DA4329"/>
<stop offset="0.7" stop-color="#F46D26"/>
</linearGradient>
<linearGradient id="paint15_linear_481_378" x1="1373.84" y1="164.337" x2="1293.28" y2="164.337" gradientUnits="userSpaceOnUse">
<stop stop-color="#FCA326"/>
<stop offset="1" stop-color="#E24329"/>
</linearGradient>
<linearGradient id="paint16_linear_481_378" x1="1373.84" y1="164.337" x2="1293.28" y2="164.337" gradientUnits="userSpaceOnUse">
<stop stop-color="#FCA326"/>
<stop offset="1" stop-color="#E24329"/>
</linearGradient>
<linearGradient id="paint17_linear_481_378" x1="1380.86" y1="164.337" x2="1286.26" y2="164.337" gradientUnits="userSpaceOnUse">
<stop stop-color="#FCA326"/>
<stop offset="1" stop-color="#E24329"/>
</linearGradient>
<linearGradient id="paint18_linear_481_378" x1="1380.86" y1="164.337" x2="1286.26" y2="164.337" gradientUnits="userSpaceOnUse">
<stop stop-color="#FCA326"/>
<stop offset="1" stop-color="#E24329"/>
</linearGradient>
<linearGradient id="paint19_linear_481_378" x1="499.76" y1="350.776" x2="377.906" y2="350.776" gradientUnits="userSpaceOnUse">
<stop offset="0.33" stop-color="#12ACAC" stop-opacity="0.61"/>
<stop offset="0.91" stop-color="#6FD5C4"/>
</linearGradient>
<linearGradient id="paint20_linear_481_378" x1="510.851" y1="350.777" x2="366.824" y2="350.777" gradientUnits="userSpaceOnUse">
<stop offset="0.33" stop-color="#12ACAC" stop-opacity="0.61"/>
<stop offset="0.91" stop-color="#6FD5C4"/>
</linearGradient>
<linearGradient id="paint21_linear_481_378" x1="478.406" y1="350.989" x2="399.178" y2="350.989" gradientUnits="userSpaceOnUse">
<stop offset="0.2" stop-color="#6FD2C1"/>
<stop offset="0.7" stop-color="#10A9A9"/>
</linearGradient>
<clipPath id="clip0_481_378">
<rect width="1440" height="400" fill="white"/>
</clipPath>
</defs>
</svg>
